AmstelvarAlpha-YTSE-min_YOPQ-min.ufo
<glyph name="quotedbl" format="1">
  <advance width="974"/>
  <unicode hex="0022"/>
  <outline>
    <contour>
      <point x="286" y="964" type="line"/>
      <point x="188" y="1443" type="line"/>
      <point x="188" y="1491"/>
      <point x="238" y="1558"/>
      <point x="292" y="1558" type="qcurve" smooth="yes"/>
      <point x="346" y="1558"/>
      <point x="396" y="1491"/>
      <point x="396" y="1443" type="qcurve"/>
      <point x="296" y="964" type="line"/>
    </contour>
    <contour>
      <point x="676" y="964" type="line"/>
      <point x="578" y="1443" type="line"/>
      <point x="578" y="1491"/>
      <point x="629" y="1558"/>
      <point x="682" y="1558" type="qcurve" smooth="yes"/>
      <point x="735" y="1558"/>
      <point x="786" y="1491"/>
      <point x="786" y="1443" type="qcurve"/>
      <point x="686" y="964" type="line"/>
    </contour>
  </outline>
</glyph>
<glyph name="percent" format="1">
  <advance width="2038"/>
  <unicode hex="0025"/>
  <outline>
    <contour>
      <point x="74" y="1061" type="qcurve" smooth="yes"/>
      <point x="74" y="1253"/>
      <point x="291" y="1522"/>
      <point x="467" y="1522" type="qcurve" smooth="yes"/>
      <point x="644" y="1522"/>
      <point x="864" y="1271"/>
      <point x="864" y="1067" type="qcurve" smooth="yes"/>
      <point x="864" y="876"/>
      <point x="648" y="601"/>
      <point x="472" y="601" type="qcurve" smooth="yes"/>
      <point x="295" y="601"/>
      <point x="74" y="856"/>
    </contour>
    <contour>
      <point x="237" y="1086" type="qcurve" smooth="yes"/>
      <point x="237" y="887"/>
      <point x="362" y="609"/>
      <point x="466" y="609" type="qcurve" smooth="yes"/>
      <point x="577" y="609"/>
      <point x="696" y="861"/>
      <point x="696" y="1071" type="qcurve" smooth="yes"/>
      <point x="696" y="1263"/>
      <point x="572" y="1514"/>
      <point x="467" y="1514" type="qcurve" smooth="yes"/>
      <point x="355" y="1514"/>
      <point x="236" y="1285"/>
    </contour>
    <contour>
      <point x="473" y="-34" type="line"/>
      <point x="1540" y="1529" type="line"/>
      <point x="1550" y="1523" type="line"/>
      <point x="483" y="-40" type="line"/>
    </contour>
    <contour>
      <point x="1174" y="430" type="qcurve" smooth="yes"/>
      <point x="1174" y="622"/>
      <point x="1391" y="891"/>
      <point x="1567" y="891" type="qcurve" smooth="yes"/>
      <point x="1744" y="891"/>
      <point x="1964" y="640"/>
      <point x="1964" y="436" type="qcurve" smooth="yes"/>
      <point x="1964" y="245"/>
      <point x="1748" y="-30"/>
      <point x="1572" y="-30" type="qcurve" smooth="yes"/>
      <point x="1395" y="-30"/>
      <point x="1174" y="225"/>
    </contour>
    <contour>
      <point x="1337" y="455" type="qcurve" smooth="yes"/>
      <point x="1337" y="256"/>
      <point x="1462" y="-22"/>
      <point x="1566" y="-22" type="qcurve" smooth="yes"/>
      <point x="1677" y="-22"/>
      <point x="1796" y="231"/>
      <point x="1796" y="441" type="qcurve" smooth="yes"/>
      <point x="1796" y="632"/>
      <point x="1672" y="883"/>
      <point x="1567" y="883" type="qcurve" smooth="yes"/>
      <point x="1455" y="883"/>
      <point x="1336" y="655"/>
    </contour>
  </outline>
</glyph>
<glyph name="quotesingle" format="1">
  <advance width="584"/>
  <unicode hex="0027"/>
  <outline>
    <contour>
      <point x="286" y="964" type="line"/>
      <point x="188" y="1443" type="line"/>
      <point x="188" y="1491"/>
      <point x="238" y="1558"/>
      <point x="292" y="1558" type="qcurve" smooth="yes"/>
      <point x="346" y="1558"/>
      <point x="396" y="1491"/>
      <point x="396" y="1443" type="qcurve"/>
      <point x="296" y="964" type="line"/>
    </contour>
  </outline>
</glyph>
<glyph name="parenright" format="1">
  <advance width="578"/>
  <unicode hex="0029"/>
  <outline>
    <contour>
      <point x="510" y="672" type="qcurve" smooth="yes"/>
      <point x="510" y="414"/>
      <point x="198" y="-40"/>
      <point x="40" y="-156" type="qcurve"/>
      <point x="38" y="-154" type="line"/>
      <point x="162" y="-24"/>
      <point x="360" y="404"/>
      <point x="360" y="672" type="qcurve" smooth="yes"/>
      <point x="360" y="940"/>
      <point x="162" y="1368"/>
      <point x="38" y="1498" type="qcurve"/>
      <point x="40" y="1500" type="line"/>
      <point x="198" y="1384"/>
      <point x="510" y="930"/>
    </contour>
  </outline>
</glyph>
<glyph name="asterisk" format="1">
  <advance width="858"/>
  <unicode hex="002A"/>
  <outline>
    <contour>
      <point x="429" y="694" type="qcurve" smooth="yes"/>
      <point x="388" y="694"/>
      <point x="356" y="752"/>
      <point x="365" y="797" type="qcurve" smooth="yes"/>
      <point x="428" y="1108" type="line"/>
      <point x="427" y="1109" type="line"/>
      <point x="189" y="899" type="line" smooth="yes"/>
      <point x="155" y="868"/>
      <point x="88" y="867"/>
      <point x="68" y="903" type="qcurve" smooth="yes"/>
      <point x="47" y="938"/>
      <point x="82" y="995"/>
      <point x="125" y="1009" type="qcurve" smooth="yes"/>
      <point x="426" y="1110" type="line"/>
      <point x="426" y="1112" type="line"/>
      <point x="125" y="1213" type="line" smooth="yes"/>
      <point x="82" y="1227"/>
      <point x="47" y="1284"/>
      <point x="68" y="1320" type="qcurve" smooth="yes"/>
      <point x="88" y="1355"/>
      <point x="155" y="1354"/>
      <point x="189" y="1323" type="qcurve" smooth="yes"/>
      <point x="427" y="1113" type="line"/>
      <point x="428" y="1114" type="line"/>
      <point x="365" y="1425" type="line" smooth="yes"/>
      <point x="356" y="1470"/>
      <point x="388" y="1528"/>
      <point x="429" y="1528" type="qcurve" smooth="yes"/>
      <point x="470" y="1528"/>
      <point x="502" y="1470"/>
      <point x="493" y="1425" type="qcurve" smooth="yes"/>
      <point x="430" y="1114" type="line"/>
      <point x="431" y="1113" type="line"/>
      <point x="669" y="1323" type="line" smooth="yes"/>
      <point x="703" y="1354"/>
      <point x="770" y="1355"/>
      <point x="790" y="1320" type="qcurve" smooth="yes"/>
      <point x="811" y="1284"/>
      <point x="776" y="1227"/>
      <point x="733" y="1213" type="qcurve" smooth="yes"/>
      <point x="432" y="1112" type="line"/>
      <point x="432" y="1110" type="line"/>
      <point x="733" y="1009" type="line" smooth="yes"/>
      <point x="776" y="995"/>
      <point x="811" y="938"/>
      <point x="790" y="902" type="qcurve" smooth="yes"/>
      <point x="770" y="867"/>
      <point x="703" y="868"/>
      <point x="669" y="899" type="qcurve" smooth="yes"/>
      <point x="431" y="1109" type="line"/>
      <point x="430" y="1108" type="line"/>
      <point x="493" y="797" type="line" smooth="yes"/>
      <point x="502" y="752"/>
      <point x="470" y="694"/>
    </contour>
  </outline>
</glyph>
<glyph name="plus" format="1">
  <advance width="1024"/>
  <unicode hex="002B"/>
  <outline>
    <contour>
      <point x="80" y="624" type="line"/>
      <point x="80" y="640" type="line"/>
      <point x="944" y="640" type="line"/>
      <point x="944" y="624" type="line"/>
    </contour>
    <contour>
      <point x="503" y="200" type="line"/>
      <point x="503" y="1064" type="line"/>
      <point x="521" y="1064" type="line"/>
      <point x="521" y="200" type="line"/>
    </contour>
  </outline>
</glyph>
<glyph name="comma" format="1">
  <advance width="584"/>
  <unicode hex="002C"/>
  <outline>
    <contour>
      <point x="160" y="-250" type="line"/>
      <point x="223" y="-200"/>
      <point x="350" y="-75"/>
      <point x="388" y="15" type="qcurve"/>
      <point x="272" y="-22"/>
      <point x="162" y="60"/>
      <point x="162" y="116" type="qcurve" smooth="yes"/>
      <point x="162" y="172"/>
      <point x="235" y="245"/>
      <point x="292" y="245" type="qcurve" smooth="yes"/>
      <point x="346" y="245"/>
      <point x="422" y="172"/>
      <point x="422" y="107" type="qcurve" smooth="yes"/>
      <point x="422" y="0"/>
      <point x="260" y="-195"/>
      <point x="163" y="-254" type="qcurve"/>
    </contour>
  </outline>
</glyph>
<glyph name="hyphen" format="1">
  <advance width="739"/>
  <unicode hex="002D"/>
  <outline>
    <contour>
      <point x="80" y="621" type="line"/>
      <point x="80" y="643" type="line"/>
      <point x="370" y="640" type="line"/>
      <point x="659" y="643" type="line"/>
      <point x="659" y="621" type="line"/>
      <point x="370" y="624" type="line"/>
    </contour>
  </outline>
</glyph>
<glyph name="period" format="1">
  <advance width="584"/>
  <unicode hex="002E"/>
  <outline>
    <contour>
      <point x="162" y="107" type="qcurve" smooth="yes"/>
      <point x="162" y="159"/>
      <point x="235" y="236"/>
      <point x="292" y="236" type="qcurve" smooth="yes"/>
      <point x="349" y="236"/>
      <point x="422" y="159"/>
      <point x="422" y="107" type="qcurve" smooth="yes"/>
      <point x="422" y="55"/>
      <point x="349" y="-22"/>
      <point x="292" y="-22" type="qcurve" smooth="yes"/>
      <point x="235" y="-22"/>
      <point x="162" y="55"/>
    </contour>
  </outline>
</glyph>
<glyph name="zero" format="1">
  <advance width="1176"/>
  <unicode hex="0030"/>
  <outline>
    <contour>
      <point x="74" y="746" type="qcurve" smooth="yes"/>
      <point x="74" y="1091"/>
      <point x="365" y="1520"/>
      <point x="589" y="1520" type="qcurve" smooth="yes"/>
      <point x="818" y="1520"/>
      <point x="1102" y="1097"/>
      <point x="1102" y="754" type="qcurve" smooth="yes"/>
      <point x="1102" y="432"/>
      <point x="823" y="-30"/>
      <point x="588" y="-30" type="qcurve" smooth="yes"/>
      <point x="362" y="-30"/>
      <point x="74" y="399"/>
    </contour>
    <contour>
      <point x="259" y="786" type="qcurve" smooth="yes"/>
      <point x="260" y="425"/>
      <point x="440" y="-22"/>
      <point x="588" y="-22" type="qcurve" smooth="yes"/>
      <point x="746" y="-22"/>
      <point x="915" y="385"/>
      <point x="917" y="756" type="qcurve" smooth="yes"/>
      <point x="919" y="1106"/>
      <point x="739" y="1512"/>
      <point x="589" y="1512" type="qcurve" smooth="yes"/>
      <point x="429" y="1512"/>
      <point x="258" y="1145"/>
    </contour>
  </outline>
</glyph>
<glyph name="four" format="1">
  <advance width="1170"/>
  <unicode hex="0034"/>
  <outline>
    <contour>
      <point x="20" y="481" type="line"/>
      <point x="16" y="491" type="line"/>
      <point x="733" y="1510" type="line"/>
      <point x="763" y="1510" type="line"/>
      <point x="855" y="1438" type="line"/>
      <point x="849" y="491" type="line"/>
      <point x="1170" y="491" type="line"/>
      <point x="1170" y="481" type="line"/>
      <point x="849" y="481" type="line"/>
      <point x="849" y="8" type="line"/>
      <point x="1077" y="8" type="line"/>
      <point x="1077" y="0" type="line"/>
      <point x="435" y="0" type="line"/>
      <point x="435" y="8" type="line"/>
      <point x="673" y="8" type="line"/>
      <point x="673" y="481" type="line"/>
    </contour>
    <contour>
      <point x="30" y="491" type="line"/>
      <point x="673" y="491" type="line"/>
      <point x="669" y="1404" type="line"/>
      <point x="27" y="494" type="line"/>
    </contour>
  </outline>
</glyph>
<glyph name="five" format="1">
  <advance width="974"/>
  <unicode hex="0035"/>
  <outline>
    <contour>
      <point x="-24" y="139" type="qcurve"/>
      <point x="-24" y="147" type="line"/>
      <point x="59" y="73"/>
      <point x="293" y="4"/>
      <point x="429" y="4" type="qcurve" smooth="yes"/>
      <point x="561" y="4"/>
      <point x="750" y="226"/>
      <point x="750" y="422" type="qcurve" smooth="yes"/>
      <point x="750" y="623"/>
      <point x="467" y="800"/>
      <point x="274" y="800" type="qcurve" smooth="yes"/>
      <point x="137" y="800" type="line"/>
      <point x="149" y="848" type="line"/>
      <point x="374" y="938" type="line"/>
      <point x="622" y="949"/>
      <point x="938" y="714"/>
      <point x="938" y="487" type="qcurve" smooth="yes"/>
      <point x="938" y="261"/>
      <point x="663" y="-26"/>
      <point x="448" y="-26" type="qcurve" smooth="yes"/>
      <point x="286" y="-26"/>
      <point x="51" y="63"/>
    </contour>
    <contour>
      <point x="137" y="800" type="qcurve"/>
      <point x="212" y="1467" type="line"/>
      <point x="239" y="1500" type="line"/>
      <point x="858" y="1500" type="line"/>
      <point x="848" y="1324" type="line"/>
      <point x="216" y="1324" type="line"/>
      <point x="206" y="1313" type="line"/>
      <point x="154" y="850"/>
      <point x="149" y="824"/>
    </contour>
  </outline>
</glyph>
<glyph name="six" format="1">
  <advance width="1176"/>
  <unicode hex="0036"/>
  <outline>
    <contour>
      <point x="74" y="653" type="qcurve" smooth="yes"/>
      <point x="74" y="979"/>
      <point x="497" y="1467"/>
      <point x="891" y="1562" type="qcurve"/>
      <point x="891" y="1554" type="line"/>
      <point x="600" y="1485"/>
      <point x="254" y="976"/>
      <point x="257" y="633" type="qcurve" smooth="yes"/>
      <point x="259" y="375"/>
      <point x="464" y="-19"/>
      <point x="639" y="-19" type="qcurve" smooth="yes"/>
      <point x="773" y="-19"/>
      <point x="929" y="230"/>
      <point x="929" y="448" type="qcurve" smooth="yes"/>
      <point x="929" y="668"/>
      <point x="755" y="887"/>
      <point x="636" y="887" type="qcurve" smooth="yes"/>
      <point x="559" y="887"/>
      <point x="443" y="825"/>
      <point x="408" y="796" type="qcurve"/>
      <point x="403" y="805" type="line"/>
      <point x="441" y="841"/>
      <point x="571" y="906"/>
      <point x="674" y="906" type="qcurve" smooth="yes"/>
      <point x="839" y="906"/>
      <point x="1116" y="671"/>
      <point x="1116" y="455" type="qcurve" smooth="yes"/>
      <point x="1116" y="238"/>
      <point x="842" y="-27"/>
      <point x="627" y="-27" type="qcurve" smooth="yes"/>
      <point x="390" y="-27"/>
      <point x="74" y="337"/>
    </contour>
  </outline>
</glyph>
<glyph name="nine" format="1">
  <advance width="1176"/>
  <unicode hex="0039"/>
  <outline>
    <contour>
      <point x="60" y="1038" type="qcurve" smooth="yes"/>
      <point x="60" y="1255"/>
      <point x="334" y="1520"/>
      <point x="549" y="1520" type="qcurve" smooth="yes"/>
      <point x="786" y="1520"/>
      <point x="1102" y="1156"/>
      <point x="1102" y="840" type="qcurve" smooth="yes"/>
      <point x="1102" y="514"/>
      <point x="679" y="26"/>
      <point x="285" y="-69" type="qcurve"/>
      <point x="285" y="-61" type="line"/>
      <point x="576" y="8"/>
      <point x="922" y="517"/>
      <point x="919" y="860" type="qcurve" smooth="yes"/>
      <point x="917" y="1118"/>
      <point x="712" y="1512"/>
      <point x="537" y="1512" type="qcurve" smooth="yes"/>
      <point x="403" y="1512"/>
      <point x="247" y="1263"/>
      <point x="247" y="1045" type="qcurve" smooth="yes"/>
      <point x="247" y="825"/>
      <point x="421" y="606"/>
      <point x="540" y="606" type="qcurve" smooth="yes"/>
      <point x="617" y="606"/>
      <point x="733" y="668"/>
      <point x="768" y="697" type="qcurve"/>
      <point x="773" y="688" type="line"/>
      <point x="735" y="652"/>
      <point x="605" y="587"/>
      <point x="502" y="587" type="qcurve" smooth="yes"/>
      <point x="337" y="587"/>
      <point x="60" y="822"/>
    </contour>
  </outline>
</glyph>
<glyph name="less" format="1">
  <advance width="701"/>
  <unicode hex="003C"/>
  <outline>
    <contour>
      <point x="100" y="634" type="qcurve"/>
      <point x="100" y="634"/>
      <point x="508" y="1023"/>
      <point x="568" y="1080" type="qcurve" smooth="yes"/>
      <point x="583" y="1094"/>
      <point x="594" y="1085"/>
      <point x="578" y="1070" type="qcurve" smooth="yes"/>
      <point x="458" y="956"/>
      <point x="118" y="634"/>
      <point x="118" y="634" type="qcurve"/>
      <point x="118" y="634"/>
      <point x="458" y="312"/>
      <point x="578" y="198" type="qcurve" smooth="yes"/>
      <point x="594" y="183"/>
      <point x="583" y="174"/>
      <point x="568" y="188" type="qcurve" smooth="yes"/>
      <point x="508" y="245"/>
      <point x="100" y="634"/>
    </contour>
  </outline>
</glyph>
<glyph name="greater" format="1">
  <advance width="701"/>
  <unicode hex="003E"/>
  <outline>
    <contour>
      <point x="601" y="634" type="qcurve"/>
      <point x="601" y="634"/>
      <point x="193" y="245"/>
      <point x="133" y="188" type="qcurve" smooth="yes"/>
      <point x="118" y="174"/>
      <point x="107" y="183"/>
      <point x="123" y="198" type="qcurve" smooth="yes"/>
      <point x="243" y="312"/>
      <point x="583" y="634"/>
      <point x="583" y="634" type="qcurve"/>
      <point x="583" y="634"/>
      <point x="243" y="956"/>
      <point x="123" y="1070" type="qcurve" smooth="yes"/>
      <point x="107" y="1085"/>
      <point x="118" y="1094"/>
      <point x="133" y="1080" type="qcurve" smooth="yes"/>
      <point x="193" y="1023"/>
      <point x="601" y="634"/>
    </contour>
  </outline>
</glyph>
<glyph name="B" format="1">
  <advance width="1269"/>
  <unicode hex="0042"/>
  <outline>
    <contour>
      <point x="82" y="0" type="line"/>
      <point x="82" y="8" type="line"/>
      <point x="290" y="8" type="line"/>
      <point x="292" y="784" type="line"/>
      <point x="290" y="1490" type="line"/>
      <point x="82" y="1490" type="line"/>
      <point x="82" y="1500" type="line"/>
      <point x="685" y="1500" type="line" smooth="yes"/>
      <point x="897" y="1500"/>
      <point x="1101" y="1315"/>
      <point x="1101" y="1176" type="qcurve" smooth="yes"/>
      <point x="1101" y="1045"/>
      <point x="951" y="864"/>
      <point x="818" y="841" type="qcurve"/>
      <point x="818" y="834" type="line"/>
      <point x="976" y="811"/>
      <point x="1193" y="615"/>
      <point x="1193" y="441" type="qcurve" smooth="yes"/>
      <point x="1193" y="251"/>
      <point x="932" y="0"/>
      <point x="701" y="0" type="qcurve" smooth="yes"/>
    </contour>
    <contour>
      <point x="470" y="21" type="line"/>
      <point x="483" y="8" type="line"/>
      <point x="645" y="8" type="line" smooth="yes"/>
      <point x="831" y="8"/>
      <point x="1007" y="224"/>
      <point x="1007" y="442" type="qcurve" smooth="yes"/>
      <point x="1007" y="628"/>
      <point x="832" y="824"/>
      <point x="669" y="824" type="qcurve" smooth="yes"/>
      <point x="477" y="824" type="line"/>
      <point x="468" y="801" type="line"/>
    </contour>
    <contour>
      <point x="468" y="848" type="line"/>
      <point x="477" y="832" type="line"/>
      <point x="644" y="832" type="line" smooth="yes"/>
      <point x="784" y="832"/>
      <point x="921" y="1021"/>
      <point x="921" y="1179" type="qcurve"/>
      <point x="921" y="1339"/>
      <point x="760" y="1492"/>
      <point x="624" y="1492" type="qcurve" smooth="yes"/>
      <point x="481" y="1492" type="line"/>
      <point x="472" y="1480" type="line"/>
    </contour>
  </outline>
</glyph>
<glyph name="E" format="1">
  <advance width="1260"/>
  <unicode hex="0045"/>
  <outline>
    <contour>
      <point x="82" y="0" type="line"/>
      <point x="82" y="8" type="line"/>
      <point x="290" y="8" type="line"/>
      <point x="292" y="783" type="line"/>
      <point x="290" y="1494" type="line"/>
      <point x="82" y="1494" type="line"/>
      <point x="82" y="1500" type="line"/>
      <point x="1136" y="1500" type="line"/>
      <point x="1136" y="1152" type="line"/>
      <point x="1128" y="1152" type="line"/>
      <point x="1037" y="1494" type="line"/>
      <point x="488" y="1494" type="line"/>
      <point x="469" y="1484" type="line"/>
      <point x="467" y="783" type="line"/>
      <point x="469" y="15" type="line"/>
      <point x="495" y="8" type="line"/>
      <point x="1102" y="8" type="line"/>
      <point x="1233" y="378" type="line"/>
      <point x="1240" y="378" type="line"/>
      <point x="1200" y="0" type="line"/>
    </contour>
    <contour>
      <point x="381" y="786" type="line"/>
      <point x="381" y="794" type="line"/>
      <point x="902" y="799" type="line"/>
      <point x="952" y="1004" type="line"/>
      <point x="960" y="1004" type="line"/>
      <point x="960" y="568" type="line"/>
      <point x="952" y="568" type="line"/>
      <point x="902" y="791" type="line"/>
    </contour>
  </outline>
</glyph>
<glyph name="F" format="1">
  <advance width="1126"/>
  <unicode hex="0046"/>
  <outline>
    <contour>
      <point x="82" y="0" type="line"/>
      <point x="82" y="8" type="line"/>
      <point x="290" y="8" type="line"/>
      <point x="292" y="760" type="line"/>
      <point x="290" y="1490" type="line"/>
      <point x="82" y="1490" type="line"/>
      <point x="82" y="1500" type="line"/>
      <point x="1086" y="1500" type="line"/>
      <point x="1086" y="1142" type="line"/>
      <point x="1078" y="1142" type="line"/>
      <point x="1016" y="1490" type="line"/>
      <point x="479" y="1490" type="line"/>
      <point x="470" y="1484" type="line"/>
      <point x="468" y="760" type="line"/>
      <point x="470" y="8" type="line"/>
      <point x="698" y="8" type="line"/>
      <point x="698" y="0" type="line"/>
    </contour>
    <contour>
      <point x="380" y="791" type="line"/>
      <point x="380" y="796" type="line"/>
      <point x="860" y="796" type="line"/>
      <point x="912" y="998" type="line"/>
      <point x="920" y="998" type="line"/>
      <point x="920" y="532" type="line"/>
      <point x="912" y="532" type="line"/>
      <point x="860" y="781" type="line"/>
    </contour>
  </outline>
</glyph>
<glyph name="G" format="1">
  <advance width="1582"/>
  <unicode hex="0047"/>
  <outline>
    <contour>
      <point x="80" y="744" type="qcurve" smooth="yes"/>
      <point x="80" y="1068"/>
      <point x="513" y="1520"/>
      <point x="854" y="1520" type="qcurve" smooth="yes"/>
      <point x="991" y="1520"/>
      <point x="1222" y="1437"/>
      <point x="1285" y="1348" type="qcurve"/>
      <point x="1276" y="1328" type="line"/>
      <point x="1232" y="1407"/>
      <point x="1022" y="1512"/>
      <point x="862" y="1512" type="qcurve" smooth="yes"/>
      <point x="615" y="1512"/>
      <point x="269" y="1123"/>
      <point x="271" y="781" type="qcurve" smooth="yes"/>
      <point x="273" y="433"/>
      <point x="615" y="-19"/>
      <point x="921" y="-19" type="qcurve" smooth="yes"/>
      <point x="1077" y="-19"/>
      <point x="1339" y="78"/>
      <point x="1416" y="156" type="qcurve"/>
      <point x="1439" y="142" type="line"/>
      <point x="1363" y="76"/>
      <point x="1066" y="-31"/>
      <point x="871" y="-31" type="qcurve" smooth="yes"/>
      <point x="522" y="-31"/>
      <point x="80" y="394"/>
    </contour>
    <contour>
      <point x="1069" y="650" type="line"/>
      <point x="1069" y="658" type="line"/>
      <point x="1570" y="658" type="line"/>
      <point x="1570" y="650" type="line"/>
      <point x="1439" y="650" type="line"/>
      <point x="1439" y="142" type="line"/>
      <point x="1268" y="49" type="line"/>
      <point x="1268" y="650" type="line"/>
    </contour>
    <contour>
      <point x="1276" y="1328" type="line"/>
      <point x="1336" y="1487" type="line"/>
      <point x="1341" y="1487" type="line"/>
      <point x="1341" y="1041" type="line"/>
      <point x="1333" y="1041" type="line"/>
    </contour>
  </outline>
</glyph>
<glyph name="H" format="1">
  <advance width="1740"/>
  <unicode hex="0048"/>
  <outline>
    <contour>
      <point x="82" y="0" type="line"/>
      <point x="82" y="8" type="line"/>
      <point x="290" y="8" type="line"/>
      <point x="292" y="780" type="line"/>
      <point x="290" y="1490" type="line"/>
      <point x="82" y="1490" type="line"/>
      <point x="82" y="1500" type="line"/>
      <point x="678" y="1500" type="line"/>
      <point x="678" y="1490" type="line"/>
      <point x="470" y="1490" type="line"/>
      <point x="468" y="780" type="line"/>
      <point x="470" y="8" type="line"/>
      <point x="678" y="8" type="line"/>
      <point x="678" y="0" type="line"/>
    </contour>
    <contour>
      <point x="380" y="778" type="line"/>
      <point x="380" y="787" type="line"/>
      <point x="870" y="793" type="line"/>
      <point x="1359" y="793" type="line"/>
      <point x="1359" y="785" type="line"/>
      <point x="870" y="785" type="line"/>
    </contour>
    <contour>
      <point x="1062" y="0" type="line"/>
      <point x="1062" y="8" type="line"/>
      <point x="1270" y="8" type="line"/>
      <point x="1272" y="780" type="line"/>
      <point x="1270" y="1490" type="line"/>
      <point x="1062" y="1490" type="line"/>
      <point x="1062" y="1500" type="line"/>
      <point x="1658" y="1500" type="line"/>
      <point x="1658" y="1490" type="line"/>
      <point x="1450" y="1490" type="line"/>
      <point x="1448" y="780" type="line"/>
      <point x="1450" y="8" type="line"/>
      <point x="1658" y="8" type="line"/>
      <point x="1658" y="0" type="line"/>
    </contour>
  </outline>
</glyph>
<glyph name="L" format="1">
  <advance width="1264"/>
  <unicode hex="004C"/>
  <outline>
    <contour>
      <point x="82" y="0" type="line"/>
      <point x="82" y="8" type="line"/>
      <point x="290" y="8" type="line"/>
      <point x="292" y="754" type="line"/>
      <point x="290" y="1490" type="line"/>
      <point x="82" y="1490" type="line"/>
      <point x="82" y="1500" type="line"/>
      <point x="712" y="1500" type="line"/>
      <point x="712" y="1490" type="line"/>
      <point x="470" y="1490" type="line"/>
      <point x="468" y="754" type="line"/>
      <point x="470" y="13" type="line"/>
      <point x="480" y="8" type="line"/>
      <point x="1098" y="8" type="line"/>
      <point x="1257" y="418" type="line"/>
      <point x="1264" y="418" type="line"/>
      <point x="1213" y="0" type="line"/>
    </contour>
  </outline>
</glyph>
<glyph name="N" format="1">
  <advance width="1610"/>
  <unicode hex="004E"/>
  <outline>
    <contour>
      <point x="82" y="0" type="line"/>
      <point x="82" y="8" type="line"/>
      <point x="320" y="8" type="line"/>
      <point x="322" y="754" type="line"/>
      <point x="320" y="1490" type="line"/>
      <point x="82" y="1490" type="line"/>
      <point x="82" y="1500" type="line"/>
      <point x="508" y="1500" type="line"/>
      <point x="895" y="825" type="line"/>
      <point x="1284" y="176" type="line"/>
      <point x="1276" y="751" type="line"/>
      <point x="1270" y="1490" type="line"/>
      <point x="982" y="1490" type="line"/>
      <point x="982" y="1500" type="line"/>
      <point x="1538" y="1500" type="line"/>
      <point x="1538" y="1490" type="line"/>
      <point x="1290" y="1490" type="line"/>
      <point x="1288" y="754" type="line"/>
      <point x="1294" y="0" type="line"/>
      <point x="1192" y="0" type="line"/>
      <point x="752" y="747" type="line"/>
      <point x="334" y="1473" type="line"/>
      <point x="332" y="752" type="line"/>
      <point x="340" y="8" type="line"/>
      <point x="628" y="8" type="line"/>
      <point x="628" y="0" type="line"/>
    </contour>
  </outline>
</glyph>
<glyph name="O" format="1">
  <advance width="1664"/>
  <unicode hex="004F"/>
  <outline>
    <contour>
      <point x="80" y="737" type="qcurve" smooth="yes"/>
      <point x="80" y="1068"/>
      <point x="495" y="1520"/>
      <point x="832" y="1520" type="qcurve" smooth="yes"/>
      <point x="1169" y="1520"/>
      <point x="1584" y="1097"/>
      <point x="1584" y="752" type="qcurve" smooth="yes"/>
      <point x="1584" y="423"/>
      <point x="1173" y="-31"/>
      <point x="836" y="-31" type="qcurve" smooth="yes"/>
      <point x="507" y="-31"/>
      <point x="80" y="396"/>
    </contour>
    <contour>
      <point x="271" y="781" type="qcurve" smooth="yes"/>
      <point x="271" y="430"/>
      <point x="584" y="-22"/>
      <point x="834" y="-22" type="qcurve" smooth="yes"/>
      <point x="1107" y="-22"/>
      <point x="1393" y="380"/>
      <point x="1393" y="750" type="qcurve" smooth="yes"/>
      <point x="1393" y="1080"/>
      <point x="1087" y="1512"/>
      <point x="834" y="1512" type="qcurve" smooth="yes"/>
      <point x="561" y="1512"/>
      <point x="271" y="1119"/>
    </contour>
  </outline>
</glyph>
<glyph name="Q" format="1">
  <advance width="1664"/>
  <unicode hex="0051"/>
  <outline>
    <contour>
      <point x="80" y="746" type="qcurve" smooth="yes"/>
      <point x="80" y="1068"/>
      <point x="513" y="1520"/>
      <point x="832" y="1520" type="qcurve" smooth="yes"/>
      <point x="1151" y="1520"/>
      <point x="1584" y="1097"/>
      <point x="1584" y="754" type="qcurve" smooth="yes"/>
      <point x="1584" y="404"/>
      <point x="1134" y="-20"/>
      <point x="832" y="-20" type="qcurve" smooth="yes"/>
      <point x="502" y="-20"/>
      <point x="80" y="419"/>
    </contour>
    <contour>
      <point x="292" y="790" type="qcurve" smooth="yes"/>
      <point x="294" y="452"/>
      <point x="589" y="-12"/>
      <point x="830" y="-12" type="qcurve" smooth="yes"/>
      <point x="1089" y="-12"/>
      <point x="1370" y="412"/>
      <point x="1372" y="761" type="qcurve" smooth="yes"/>
      <point x="1374" y="1088"/>
      <point x="1077" y="1512"/>
      <point x="834" y="1512" type="qcurve" smooth="yes"/>
      <point x="571" y="1512"/>
      <point x="290" y="1127"/>
    </contour>
    <contour>
      <point x="261" y="-244" type="line"/>
      <point x="285" y="-195"/>
      <point x="531" y="-40"/>
      <point x="568" y="-40" type="qcurve"/>
      <point x="1335" y="-289" type="line"/>
      <point x="1401" y="-286"/>
      <point x="1465" y="-244"/>
      <point x="1515" y="-158" type="qcurve"/>
      <point x="1529" y="-167" type="line"/>
      <point x="1490" y="-267"/>
      <point x="1339" y="-399"/>
      <point x="1239" y="-429" type="qcurve"/>
      <point x="495" y="-177" type="line"/>
      <point x="418" y="-165"/>
      <point x="330" y="-184"/>
      <point x="270" y="-257" type="qcurve"/>
    </contour>
    <contour>
      <point x="514" y="-73" type="line"/>
      <point x="785" y="119" type="line" smooth="yes"/>
      <point x="804" y="133"/>
      <point x="860" y="166"/>
      <point x="881" y="166" type="qcurve"/>
      <point x="902" y="133"/>
      <point x="901" y="130"/>
      <point x="863" y="130" type="qcurve" smooth="yes"/>
      <point x="848" y="130"/>
      <point x="816" y="125"/>
      <point x="798" y="113" type="qcurve" smooth="yes"/>
      <point x="521" y="-75" type="line"/>
    </contour>
  </outline>
</glyph>
<glyph name="T" format="1">
  <advance width="1288"/>
  <unicode hex="0054"/>
  <outline>
    <contour>
      <point x="40" y="1160" type="line"/>
      <point x="40" y="1500" type="line"/>
      <point x="1248" y="1500" type="line"/>
      <point x="1248" y="1160" type="line"/>
      <point x="1240" y="1160" type="line"/>
      <point x="1136" y="1492" type="line"/>
      <point x="750" y="1492" type="line"/>
      <point x="734" y="1481" type="line"/>
      <point x="732" y="754" type="line"/>
      <point x="734" y="8" type="line"/>
      <point x="951" y="8" type="line"/>
      <point x="951" y="0" type="line"/>
      <point x="335" y="0" type="line"/>
      <point x="335" y="8" type="line"/>
      <point x="554" y="8" type="line"/>
      <point x="556" y="754" type="line"/>
      <point x="554" y="1474" type="line"/>
      <point x="529" y="1492" type="line"/>
      <point x="138" y="1492" type="line"/>
      <point x="48" y="1160" type="line"/>
    </contour>
  </outline>
</glyph>
<glyph name="U" format="1">
  <advance width="1632"/>
  <unicode hex="0055"/>
  <outline>
    <contour>
      <point x="74" y="1490" type="line"/>
      <point x="74" y="1500" type="line"/>
      <point x="670" y="1500" type="line"/>
      <point x="670" y="1490" type="line"/>
      <point x="463" y="1490" type="line"/>
      <point x="458" y="794" type="line"/>
      <point x="462" y="469" type="line" smooth="yes"/>
      <point x="462" y="226"/>
      <point x="647" y="2"/>
      <point x="877" y="2" type="qcurve" smooth="yes"/>
      <point x="1085" y="2"/>
      <point x="1361" y="227"/>
      <point x="1363" y="494" type="qcurve" smooth="yes"/>
      <point x="1365" y="794" type="line"/>
      <point x="1365" y="1490" type="line"/>
      <point x="1082" y="1490" type="line"/>
      <point x="1082" y="1500" type="line"/>
      <point x="1648" y="1500" type="line"/>
      <point x="1648" y="1490" type="line"/>
      <point x="1375" y="1490" type="line"/>
      <point x="1375" y="794" type="line"/>
      <point x="1377" y="493" type="line" smooth="yes"/>
      <point x="1379" y="216"/>
      <point x="1087" y="-31"/>
      <point x="846" y="-31" type="qcurve" smooth="yes"/>
      <point x="581" y="-31"/>
      <point x="279" y="242"/>
      <point x="282" y="481" type="qcurve" smooth="yes"/>
      <point x="284" y="794" type="line"/>
      <point x="282" y="1490" type="line"/>
    </contour>
  </outline>
</glyph>
<glyph name="X" format="1">
  <advance width="1346"/>
  <unicode hex="0058"/>
  <outline>
    <contour>
      <point x="-80" y="0" type="line"/>
      <point x="-80" y="8" type="line"/>
      <point x="128" y="8" type="line"/>
      <point x="657" y="808" type="line"/>
      <point x="659" y="808" type="line"/>
      <point x="1117" y="1490" type="line"/>
      <point x="850" y="1490" type="line"/>
      <point x="850" y="1500" type="line"/>
      <point x="1356" y="1500" type="line"/>
      <point x="1356" y="1490" type="line"/>
      <point x="1128" y="1490" type="line"/>
      <point x="666" y="798" type="line"/>
      <point x="664" y="798" type="line"/>
      <point x="142" y="8" type="line"/>
      <point x="416" y="8" type="line"/>
      <point x="416" y="0" type="line"/>
    </contour>
    <contour>
      <point x="-40" y="1490" type="line"/>
      <point x="-40" y="1500" type="line"/>
      <point x="494" y="1500" type="line"/>
      <point x="494" y="1490" type="line"/>
      <point x="301" y="1490" type="line"/>
      <point x="715" y="866" type="line"/>
      <point x="1298" y="8" type="line"/>
      <point x="1446" y="8" type="line"/>
      <point x="1446" y="0" type="line"/>
      <point x="902" y="0" type="line"/>
      <point x="902" y="8" type="line"/>
      <point x="1095" y="8" type="line"/>
      <point x="605" y="742" type="line"/>
      <point x="98" y="1488" type="line"/>
    </contour>
  </outline>
</glyph>
<glyph name="bracketleft" format="1">
  <advance width="616"/>
  <unicode hex="005B"/>
  <outline>
    <contour>
      <point x="165" y="508" type="line"/>
      <point x="172" y="1498" type="line"/>
      <point x="181" y="1510" type="line"/>
      <point x="195" y="1500" type="line"/>
      <point x="572" y="1500" type="line"/>
      <point x="572" y="1490" type="line"/>
      <point x="285" y="1490" type="line"/>
      <point x="285" y="508" type="line"/>
      <point x="285" y="-472" type="line"/>
      <point x="572" y="-472" type="line"/>
      <point x="572" y="-480" type="line"/>
      <point x="183" y="-480" type="line"/>
      <point x="175" y="-490" type="line"/>
      <point x="172" y="-480" type="line"/>
    </contour>
  </outline>
</glyph>
<glyph name="asciicircum" format="1">
  <advance width="1317"/>
  <unicode hex="005E"/>
  <outline>
    <contour>
      <point x="638" y="1520" type="qcurve"/>
      <point x="638" y="1520"/>
      <point x="1133" y="985"/>
      <point x="1190" y="924" type="qcurve" smooth="yes"/>
      <point x="1205" y="908"/>
      <point x="1195" y="898"/>
      <point x="1180" y="914" type="qcurve" smooth="yes"/>
      <point x="1067" y="1035"/>
      <point x="638" y="1502"/>
      <point x="638" y="1502" type="qcurve"/>
      <point x="638" y="1502"/>
      <point x="241" y="1041"/>
      <point x="136" y="913" type="qcurve" smooth="yes"/>
      <point x="122" y="896"/>
      <point x="112" y="906"/>
      <point x="126" y="923" type="qcurve" smooth="yes"/>
      <point x="179" y="988"/>
      <point x="638" y="1520"/>
    </contour>
  </outline>
</glyph>
<glyph name="underscore" format="1">
  <advance width="1448"/>
  <unicode hex="005F"/>
  <outline>
    <contour>
      <point x="-20" y="-480" type="line"/>
      <point x="-20" y="-460" type="line"/>
      <point x="728" y="-462" type="line"/>
      <point x="1468" y="-460" type="line"/>
      <point x="1468" y="-480" type="line"/>
      <point x="728" y="-472" type="line"/>
    </contour>
  </outline>
</glyph>
<glyph name="a" format="1">
  <advance width="1032"/>
  <unicode hex="0061"/>
  <outline>
    <contour>
      <point x="38" y="226" type="qcurve" smooth="yes"/>
      <point x="38" y="353"/>
      <point x="349" y="553"/>
      <point x="686" y="610" type="qcurve"/>
      <point x="686" y="602" type="line"/>
      <point x="425" y="552"/>
      <point x="218" y="367"/>
      <point x="218" y="251" type="qcurve" smooth="yes"/>
      <point x="218" y="148"/>
      <point x="314" y="37"/>
      <point x="408" y="37" type="qcurve" smooth="yes"/>
      <point x="505" y="37"/>
      <point x="658" y="149"/>
      <point x="668" y="216" type="qcurve"/>
      <point x="672" y="216" type="line"/>
      <point x="666" y="146"/>
      <point x="480" y="-15"/>
      <point x="341" y="-15" type="qcurve" smooth="yes"/>
      <point x="200" y="-15"/>
      <point x="38" y="123"/>
    </contour>
    <contour>
      <point x="127" y="890" type="line"/>
      <point x="172" y="941"/>
      <point x="338" y="1021"/>
      <point x="464" y="1021" type="qcurve" smooth="yes"/>
      <point x="619" y="1021"/>
      <point x="831" y="823"/>
      <point x="833" y="577" type="qcurve" smooth="yes"/>
      <point x="838" y="8" type="line"/>
      <point x="986" y="8" type="line"/>
      <point x="986" y="0" type="line"/>
      <point x="703" y="0" type="line"/>
      <point x="693" y="15" type="line"/>
      <point x="667" y="190" type="line"/>
      <point x="670" y="587" type="line" smooth="yes"/>
      <point x="672" y="812"/>
      <point x="534" y="991"/>
      <point x="419" y="991" type="qcurve" smooth="yes"/>
      <point x="325" y="991"/>
      <point x="184" y="935"/>
      <point x="137" y="884" type="qcurve"/>
    </contour>
  </outline>
</glyph>
<glyph name="d" format="1">
  <advance width="1207"/>
  <unicode hex="0064"/>
  <outline>
    <contour>
      <point x="68" y="478" type="qcurve" smooth="yes"/>
      <point x="68" y="722"/>
      <point x="337" y="1020"/>
      <point x="556" y="1020" type="qcurve" smooth="yes"/>
      <point x="662" y="1020"/>
      <point x="855" y="943"/>
      <point x="886" y="889" type="qcurve"/>
      <point x="848" y="845" type="line"/>
      <point x="816" y="922"/>
      <point x="682" y="1012"/>
      <point x="567" y="1012" type="qcurve" smooth="yes"/>
      <point x="431" y="1012"/>
      <point x="252" y="714"/>
      <point x="252" y="497" type="qcurve" smooth="yes"/>
      <point x="252" y="269"/>
      <point x="416" y="17"/>
      <point x="548" y="17" type="qcurve" smooth="yes"/>
      <point x="652" y="17"/>
      <point x="810" y="116"/>
      <point x="855" y="209" type="qcurve"/>
      <point x="862" y="204" type="line"/>
      <point x="819" y="107"/>
      <point x="641" y="-9"/>
      <point x="505" y="-9" type="qcurve" smooth="yes"/>
      <point x="314" y="-9"/>
      <point x="68" y="254"/>
    </contour>
    <contour>
      <point x="648" y="1490" type="line"/>
      <point x="648" y="1500" type="line"/>
      <point x="993" y="1500" type="line"/>
      <point x="996" y="1499" type="line"/>
      <point x="1002" y="1479" type="line"/>
      <point x="999" y="538" type="line"/>
      <point x="1008" y="8" type="line"/>
      <point x="1157" y="8" type="line"/>
      <point x="1157" y="0" type="line"/>
      <point x="880" y="0" type="line"/>
      <point x="861" y="20" type="line"/>
      <point x="841" y="162" type="line"/>
      <point x="841" y="537" type="line"/>
      <point x="832" y="1490" type="line"/>
    </contour>
  </outline>
</glyph>
<glyph name="k" format="1">
  <advance width="1072"/>
  <unicode hex="006B"/>
  <outline>
    <contour>
      <point x="76" y="0" type="line"/>
      <point x="76" y="8" type="line"/>
      <point x="218" y="8" type="line"/>
      <point x="220" y="527" type="line"/>
      <point x="218" y="1490" type="line"/>
      <point x="52" y="1490" type="line"/>
      <point x="52" y="1500" type="line"/>
      <point x="369" y="1500" type="line"/>
      <point x="369" y="1499" type="line"/>
      <point x="388" y="1470" type="line"/>
      <point x="386" y="507" type="line"/>
      <point x="388" y="8" type="line"/>
      <point x="526" y="8" type="line"/>
      <point x="526" y="0" type="line"/>
    </contour>
    <contour>
      <point x="350" y="490" type="line"/>
      <point x="347" y="499" type="line"/>
      <point x="891" y="992" type="line"/>
      <point x="681" y="992" type="line"/>
      <point x="681" y="1000" type="line"/>
      <point x="1097" y="1000" type="line"/>
      <point x="1097" y="992" type="line"/>
      <point x="910" y="992" type="line"/>
    </contour>
    <contour>
      <point x="456" y="592" type="line"/>
      <point x="576" y="700" type="line"/>
      <point x="1052" y="10" type="line"/>
      <point x="1142" y="8" type="line"/>
      <point x="1142" y="0" type="line"/>
      <point x="882" y="0" type="line"/>
      <point x="868" y="8" type="line"/>
      <point x="837" y="37" type="line"/>
    </contour>
  </outline>
</glyph>
<glyph name="l" format="1">
  <advance width="632"/>
  <unicode hex="006C"/>
  <outline>
    <contour>
      <point x="76" y="0" type="line"/>
      <point x="76" y="8" type="line"/>
      <point x="238" y="8" type="line"/>
      <point x="240" y="527" type="line"/>
      <point x="238" y="1492" type="line"/>
      <point x="52" y="1492" type="line"/>
      <point x="52" y="1500" type="line"/>
      <point x="391" y="1500" type="line"/>
      <point x="398" y="1499" type="line"/>
      <point x="408" y="1470" type="line"/>
      <point x="406" y="527" type="line"/>
      <point x="408" y="8" type="line"/>
      <point x="566" y="8" type="line"/>
      <point x="566" y="0" type="line"/>
    </contour>
  </outline>
</glyph>
<glyph name="m" format="1">
  <advance width="1916"/>
  <unicode hex="006D"/>
  <outline>
    <contour>
      <point x="76" y="0" type="line"/>
      <point x="76" y="8" type="line"/>
      <point x="224" y="8" type="line"/>
      <point x="226" y="607" type="line"/>
      <point x="224" y="992" type="line"/>
      <point x="76" y="992" type="line"/>
      <point x="76" y="1000" type="line"/>
      <point x="364" y="1000" type="line"/>
      <point x="379" y="993" type="line"/>
      <point x="393" y="811" type="line"/>
      <point x="391" y="607" type="line"/>
      <point x="393" y="8" type="line"/>
      <point x="531" y="8" type="line"/>
      <point x="531" y="0" type="line"/>
    </contour>
    <contour>
      <point x="386" y="789" type="qcurve"/>
      <point x="378" y="792" type="line"/>
      <point x="417" y="881"/>
      <point x="604" y="1022"/>
      <point x="737" y="1022" type="qcurve" smooth="yes"/>
      <point x="894" y="1022"/>
      <point x="1046" y="872"/>
      <point x="1046" y="742" type="qcurve" smooth="yes"/>
      <point x="1046" y="668"/>
      <point x="1044" y="527"/>
      <point x="1044" y="527" type="qcurve"/>
      <point x="1049" y="8" type="line"/>
      <point x="1197" y="8" type="line"/>
      <point x="1197" y="0" type="line"/>
      <point x="721" y="0" type="line"/>
      <point x="721" y="8" type="line"/>
      <point x="881" y="8" type="line"/>
      <point x="881" y="567" type="line"/>
      <point x="881" y="733" type="line" smooth="yes"/>
      <point x="881" y="851"/>
      <point x="785" y="973"/>
      <point x="680" y="973" type="qcurve" smooth="yes"/>
      <point x="581" y="973"/>
      <point x="430" y="876"/>
    </contour>
    <contour>
      <point x="1038" y="788" type="qcurve"/>
      <point x="1030" y="792" type="line"/>
      <point x="1075" y="891"/>
      <point x="1271" y="1022"/>
      <point x="1393" y="1022" type="qcurve" smooth="yes"/>
      <point x="1547" y="1022"/>
      <point x="1702" y="872"/>
      <point x="1702" y="742" type="qcurve" smooth="yes"/>
      <point x="1702" y="668"/>
      <point x="1699" y="527"/>
      <point x="1699" y="527" type="qcurve"/>
      <point x="1702" y="8" type="line"/>
      <point x="1850" y="8" type="line"/>
      <point x="1850" y="0" type="line"/>
      <point x="1374" y="0" type="line"/>
      <point x="1374" y="8" type="line"/>
      <point x="1532" y="8" type="line"/>
      <point x="1534" y="527" type="line"/>
      <point x="1534" y="733" type="line" smooth="yes"/>
      <point x="1534" y="850"/>
      <point x="1434" y="973"/>
      <point x="1337" y="973" type="qcurve" smooth="yes"/>
      <point x="1244" y="973"/>
      <point x="1085" y="885"/>
    </contour>
  </outline>
</glyph>
<glyph name="n" format="1">
  <advance width="1264"/>
  <unicode hex="006E"/>
  <outline>
    <contour>
      <point x="76" y="0" type="line"/>
      <point x="76" y="8" type="line"/>
      <point x="226" y="8" type="line"/>
      <point x="226" y="607" type="line"/>
      <point x="224" y="992" type="line"/>
      <point x="76" y="992" type="line"/>
      <point x="76" y="1000" type="line"/>
      <point x="364" y="1000" type="line"/>
      <point x="379" y="993" type="line"/>
      <point x="392" y="811" type="line"/>
      <point x="392" y="607" type="line"/>
      <point x="392" y="8" type="line"/>
      <point x="532" y="8" type="line"/>
      <point x="532" y="0" type="line"/>
    </contour>
    <contour>
      <point x="386" y="789" type="qcurve"/>
      <point x="378" y="792" type="line"/>
      <point x="417" y="881"/>
      <point x="604" y="1022"/>
      <point x="737" y="1022" type="qcurve" smooth="yes"/>
      <point x="895" y="1022"/>
      <point x="1050" y="872"/>
      <point x="1050" y="742" type="qcurve" smooth="yes"/>
      <point x="1050" y="668"/>
      <point x="1048" y="527"/>
      <point x="1048" y="527" type="qcurve"/>
      <point x="1048" y="8" type="line"/>
      <point x="1198" y="8" type="line"/>
      <point x="1198" y="0" type="line"/>
      <point x="722" y="0" type="line"/>
      <point x="722" y="8" type="line"/>
      <point x="882" y="8" type="line"/>
      <point x="882" y="607" type="line"/>
      <point x="882" y="734" type="line" smooth="yes"/>
      <point x="882" y="851"/>
      <point x="784" y="970"/>
      <point x="680" y="970" type="qcurve" smooth="yes"/>
      <point x="583" y="970"/>
      <point x="428" y="871"/>
    </contour>
  </outline>
</glyph>
<glyph name="p" format="1">
  <advance width="1198"/>
  <unicode hex="0070"/>
  <outline>
    <contour>
      <point x="61" y="-480" type="line"/>
      <point x="61" y="-472" type="line"/>
      <point x="204" y="-472" type="line"/>
      <point x="206" y="427" type="line"/>
      <point x="204" y="992" type="line"/>
      <point x="56" y="992" type="line"/>
      <point x="56" y="1000" type="line"/>
      <point x="356" y="1000" type="line"/>
      <point x="369" y="993" type="line"/>
      <point x="374" y="834" type="line"/>
      <point x="372" y="427" type="line"/>
      <point x="374" y="-472" type="line"/>
      <point x="526" y="-472" type="line"/>
      <point x="526" y="-480" type="line"/>
    </contour>
    <contour>
      <point x="347" y="157" type="qcurve"/>
      <point x="359" y="168" type="line"/>
      <point x="391" y="92"/>
      <point x="551" y="-4"/>
      <point x="654" y="-4" type="qcurve" smooth="yes"/>
      <point x="790" y="-4"/>
      <point x="946" y="261"/>
      <point x="946" y="507" type="qcurve" smooth="yes"/>
      <point x="946" y="743"/>
      <point x="791" y="993"/>
      <point x="659" y="993" type="qcurve" smooth="yes"/>
      <point x="538" y="993"/>
      <point x="381" y="856"/>
      <point x="353" y="789" type="qcurve"/>
      <point x="345" y="792" type="line"/>
      <point x="378" y="873"/>
      <point x="556" y="1022"/>
      <point x="725" y="1020" type="qcurve" smooth="yes"/>
      <point x="893" y="1022"/>
      <point x="1130" y="754"/>
      <point x="1130" y="530" type="qcurve" smooth="yes"/>
      <point x="1130" y="275"/>
      <point x="879" y="-12"/>
      <point x="665" y="-12" type="qcurve" smooth="yes"/>
      <point x="545" y="-12"/>
      <point x="382" y="93"/>
    </contour>
  </outline>
</glyph>
<glyph name="u" format="1">
  <advance width="1244"/>
  <unicode hex="0075"/>
  <outline>
    <contour>
      <point x="56" y="992" type="line"/>
      <point x="56" y="1000" type="line"/>
      <point x="324" y="1000" type="line"/>
      <point x="359" y="1000" type="line"/>
      <point x="374" y="975" type="line"/>
      <point x="372" y="473" type="line"/>
      <point x="372" y="265" type="line" smooth="yes"/>
      <point x="372" y="126"/>
      <point x="474" y="17"/>
      <point x="570" y="17" type="qcurve" smooth="yes"/>
      <point x="650" y="17"/>
      <point x="817" y="112"/>
      <point x="868" y="213" type="qcurve"/>
      <point x="875" y="209" type="line"/>
      <point x="832" y="110"/>
      <point x="623" y="-17"/>
      <point x="506" y="-17" type="qcurve" smooth="yes"/>
      <point x="359" y="-17"/>
      <point x="204" y="132"/>
      <point x="204" y="262" type="qcurve" smooth="yes"/>
      <point x="204" y="336"/>
      <point x="209" y="473"/>
      <point x="209" y="473" type="qcurve"/>
      <point x="204" y="992" type="line"/>
    </contour>
    <contour>
      <point x="722" y="992" type="line"/>
      <point x="722" y="1000" type="line"/>
      <point x="990" y="1000" type="line"/>
      <point x="1015" y="1000" type="line"/>
      <point x="1030" y="974" type="line"/>
      <point x="1028" y="473" type="line"/>
      <point x="1030" y="10" type="line"/>
      <point x="1178" y="10" type="line"/>
      <point x="1178" y="0" type="line"/>
      <point x="892" y="0" type="line"/>
      <point x="881" y="13" type="line"/>
      <point x="860" y="188" type="line"/>
      <point x="862" y="473" type="line"/>
      <point x="860" y="992" type="line"/>
    </contour>
  </outline>
</glyph>
<glyph name="v" format="1">
  <advance width="1046"/>
  <unicode hex="0076"/>
  <outline>
    <contour>
      <point x="-60" y="992" type="line"/>
      <point x="-60" y="1000" type="line"/>
      <point x="364" y="1000" type="line"/>
      <point x="364" y="992" type="line"/>
      <point x="238" y="992" type="line"/>
      <point x="403" y="535" type="line"/>
      <point x="576" y="92" type="line"/>
      <point x="739" y="519" type="line"/>
      <point x="920" y="992" type="line"/>
      <point x="710" y="992" type="line"/>
      <point x="710" y="1000" type="line"/>
      <point x="1126" y="1000" type="line"/>
      <point x="1126" y="992" type="line"/>
      <point x="929" y="992" type="line"/>
      <point x="747" y="515" type="line"/>
      <point x="555" y="-8" type="line"/>
      <point x="452" y="-8" type="line"/>
      <point x="266" y="481" type="line"/>
      <point x="65" y="992" type="line"/>
    </contour>
  </outline>
</glyph>
<glyph name="x" format="1">
  <advance width="1043"/>
  <unicode hex="0078"/>
  <outline>
    <contour>
      <point x="-4" y="0" type="line"/>
      <point x="-4" y="8" type="line"/>
      <point x="186" y="8" type="line"/>
      <point x="517" y="510" type="line"/>
      <point x="530" y="510" type="line"/>
      <point x="848" y="990" type="line"/>
      <point x="610" y="990" type="line"/>
      <point x="610" y="1000" type="line"/>
      <point x="1026" y="1000" type="line"/>
      <point x="1026" y="990" type="line"/>
      <point x="861" y="990" type="line"/>
      <point x="535" y="504" type="line"/>
      <point x="522" y="504" type="line"/>
      <point x="197" y="8" type="line"/>
      <point x="412" y="8" type="line"/>
      <point x="412" y="0" type="line"/>
    </contour>
    <contour>
      <point x="0" y="990" type="line"/>
      <point x="0" y="1000" type="line"/>
      <point x="422" y="1000" type="line"/>
      <point x="422" y="990" type="line"/>
      <point x="290" y="990" type="line"/>
      <point x="569" y="559" type="line"/>
      <point x="935" y="8" type="line"/>
      <point x="1063" y="8" type="line"/>
      <point x="1063" y="0" type="line"/>
      <point x="631" y="0" type="line"/>
      <point x="631" y="8" type="line"/>
      <point x="755" y="8" type="line"/>
      <point x="472" y="455" type="line"/>
      <point x="110" y="990" type="line"/>
    </contour>
  </outline>
</glyph>
<glyph name="y" format="1">
  <advance width="1046"/>
  <unicode hex="0079"/>
  <outline>
    <contour>
      <point x="-60" y="990" type="line"/>
      <point x="-60" y="1000" type="line"/>
      <point x="364" y="1000" type="line"/>
      <point x="364" y="990" type="line"/>
      <point x="238" y="990" type="line"/>
      <point x="403" y="535" type="line"/>
      <point x="564" y="123" type="line"/>
      <point x="714" y="520" type="line"/>
      <point x="884" y="990" type="line"/>
      <point x="670" y="990" type="line"/>
      <point x="670" y="1000" type="line"/>
      <point x="1086" y="1000" type="line"/>
      <point x="1086" y="990" type="line"/>
      <point x="895" y="990" type="line"/>
      <point x="722" y="516" type="line"/>
      <point x="460" y="-196" type="line" smooth="yes"/>
      <point x="408" y="-338"/>
      <point x="216" y="-490"/>
      <point x="127" y="-490" type="qcurve"/>
      <point x="-31" y="-480" type="line"/>
      <point x="-31" y="-462" type="line"/>
      <point x="70" y="-462" type="line" smooth="yes"/>
      <point x="251" y="-462"/>
      <point x="407" y="-309"/>
      <point x="451" y="-188" type="qcurve" smooth="yes"/>
      <point x="487" y="-90" type="line"/>
      <point x="266" y="481" type="line"/>
      <point x="65" y="990" type="line"/>
    </contour>
  </outline>
</glyph>
<glyph name="cid41012" format="1">
  <advance width="2000"/>
  <unicode hex="8FB0"/>
  <outline>
    <contour>
      <point x="334.8358208955224" y="78.77611940298505"/>
      <point x="448.0" y="782.0"/>
      <point x="448" y="1082" type="qcurve" smooth="yes"/>
      <point x="448" y="1130" type="line"/>
      <point x="1646" y="1130" type="line" smooth="yes"/>
      <point x="1671.3731343283582" y="1130.0"/>
      <point x="1703.2686567164178" y="1153.1044776119404"/>
      <point x="1707" y="1174" type="qcurve"/>
      <point x="1654.7611940298507" y="1223.2537313432836"/>
      <point x="1514.0" y="1340.0"/>
      <point x="1514" y="1340" type="qcurve"/>
      <point x="1391" y="1187" type="line"/>
      <point x="1440" y="1230" type="line"/>
      <point x="448" y="1230" type="line"/>
      <point x="448" y="1428" type="line"/>
      <point x="1840" y="1428" type="line" smooth="yes"/>
      <point x="1865.3731343283582" y="1428.0"/>
      <point x="1906.2686567164178" y="1459.6119402985075"/>
      <point x="1910" y="1482" type="qcurve"/>
      <point x="1857.7611940298507" y="1531.2537313432836"/>
      <point x="1702.0" y="1654.0"/>
      <point x="1702" y="1654" type="qcurve"/>
      <point x="1600" y="1526" type="line"/>
      <point x="472" y="1526" type="line"/>
      <point x="320" y="1594" type="line"/>
      <point x="320" y="1082" type="line" smooth="yes"/>
      <point x="320.0" y="779.0149253731344"/>
      <point x="211.13432835820893" y="147.64179104477608"/>
      <point x="38" y="-124" type="qcurve"/>
      <point x="102" y="-166" type="line"/>
    </contour>
    <contour>
      <point x="1589.4626865671642" y="106.0597014925373"/>
      <point x="1166.8955223880596" y="560.7761194029852"/>
      <point x="1096" y="816" type="qcurve"/>
      <point x="1832" y="816" type="line" smooth="yes"/>
      <point x="1857.3731343283582" y="816.0"/>
      <point x="1887.5223880597016" y="842.5970149253732"/>
      <point x="1892" y="862" type="qcurve"/>
      <point x="1839.7611940298507" y="909.7611940298507"/>
      <point x="1700.0" y="1016.0"/>
      <point x="1700" y="1016" type="qcurve"/>
      <point x="1585" y="870" type="line"/>
      <point x="1654" y="914" type="line"/>
      <point x="400" y="914" type="line"/>
      <point x="400" y="816" type="line"/>
      <point x="662" y="816" type="line"/>
      <point x="662" y="110" type="line" smooth="yes"/>
      <point x="662.0" y="84.6268656716418"/>
      <point x="631.7313432835821" y="53.373134328358205"/>
      <point x="578" y="28" type="qcurve"/>
      <point x="662" y="-144" type="line"/>
      <point x="672.4477611940298" y="-139.52238805970148"/>
      <point x="699.5522388059702" y="-117.91044776119404"/>
      <point x="710" y="-100" type="qcurve"/>
      <point x="865.2238805970148" y="-29.85074626865672"/>
      <point x="1143.8955223880598" y="83.19402985074628"/>
      <point x="1223" y="122" type="qcurve"/>
      <point x="1206" y="190" type="line"/>
      <point x="1092.5671641791046" y="158.65671641791045"/>
      <point x="869.2089552238806" y="83.62686567164178"/>
      <point x="761" y="59" type="qcurve"/>
      <point x="790" y="36" type="line"/>
      <point x="790" y="816" type="line"/>
      <point x="1014" y="816" type="line"/>
      <point x="1094.597014925373" y="459.2835820895523"/>
      <point x="1494.5074626865671" y="5.880597014925357"/>
      <point x="1796" y="-118" type="qcurve"/>
      <point x="1812.4179104477612" y="-67.25373134328359"/>
      <point x="1879.7313432835822" y="-8.477611940298507"/>
      <point x="1926" y="-4" type="qcurve"/>
      <point x="1932" y="18" type="line"/>
    </contour>
    <contour>
      <point x="1240" y="438" type="qcurve"/>
      <point x="1288" y="378" type="line"/>
      <point x="1410.3880597014925" y="436.95522388059703"/>
      <point x="1617.7910447761194" y="574.179104477612"/>
      <point x="1676" y="610" type="qcurve"/>
      <point x="1714.8059701492537" y="592.0895522388059"/>
      <point x="1772.5671641791046" y="604.3432835820895"/>
      <point x="1786" y="623" type="qcurve"/>
      <point x="1596" y="756" type="line"/>
      <point x="1543.7611940298507" y="694.8059701492538"/>
      <point x="1340.7462686567164" y="523.0746268656717"/>
    </contour>
  </outline>
</glyph>
